<?xml version="1.0" standalone="no"?><!DOCTYPE svg PUBLIC "-//W3C//DTD SVG 1.1//EN" "http://www.w3.org/Graphics/SVG/1.1/DTD/svg11.dtd"><svg t="1694969360516" class="icon" viewBox="0 0 1024 1024" version="1.1" xmlns="http://www.w3.org/2000/svg" p-id="54532" xmlns:xlink="http://www.w3.org/1999/xlink" width="16" height="16"><path d="M665.6 0c141.390769 0 256 115.987692 256 259.032615 0 25.6-3.662769 50.254769-10.476308 73.609847A204.681846 204.681846 0 0 1 1024 515.662769v4.883693a204.8 204.8 0 0 1-204.8 204.8l-179.2-0.039385v-76.8h179.2a128 128 0 0 0 127.763692-120.438154l0.236308-7.522461v-4.883693c0-46.08-24.497231-87.670154-63.133538-110.355692l-7.404308-4.056615-57.225846-28.75077 17.959384-61.44c4.883692-16.659692 7.404308-34.146462 7.404308-51.987692 0-100.864-80.423385-182.272-179.2-182.272a178.057846 178.057846 0 0 0-147.416615 78.611692l-5.356308 8.310154-36.273231 60.061539-63.094154-30.72A125.203692 125.203692 0 0 0 358.4 180.381538c-67.977846 0-123.864615 54.114462-127.803077 121.540924l-0.196923 7.561846 1.181538 67.072-58.761846 15.084307a128.078769 128.078769 0 0 0-95.783384 116.342154l-0.236308 7.640616v4.883692a128 128 0 0 0 120.477538 127.763692l7.522462 0.236308 179.2-0.039385v76.8H204.8a204.8 204.8 0 0 1-204.603077-195.662769L0 515.662769a204.878769 204.878769 0 0 1 153.718154-198.380307L153.6 310.862769c0-114.451692 91.687385-207.241846 204.8-207.241846 31.783385 0 61.833846 7.325538 88.694154 20.401231C492.032 49.624615 573.124923 0 665.6 0z" fill="#2c2c2c" p-id="54533"></path><path d="M597.346462 426.653538c23.552 0 42.653538 19.101538 42.653538 42.692924v170.653538c0 23.552-19.101538 42.653538-42.653538 42.653538h-170.692924A42.653538 42.653538 0 0 1 384 640v-170.653538c0-23.591385 19.101538-42.692923 42.653538-42.692924h170.692924z m-21.346462 64h-128v128h128v-128z" fill="#2c2c2c" p-id="54534"></path><path d="M512 309.326769c16.187077 0 29.577846 12.051692 31.704615 27.648l0.315077 4.332308v128h-64.039384V373.366154H384V309.326769H512zM629.366154 213.346462V256h-64.039385V213.346462h64z m0 85.307076v42.692924h-64.039385V298.653538h64z m0 85.346462v42.653538h-64.039385V384h64zM469.346462 1002.653538a32.019692 32.019692 0 0 0 31.704615-27.648l0.275692-4.332307V650.633846h-64v287.980308H384v64h85.346462zM586.673231 853.346462a32.019692 32.019692 0 0 1-31.704616-27.687385l-0.315077-4.332308v-170.653538h64v138.633846h181.366154v64.039385h-213.346461zM768 554.653538a32.019692 32.019692 0 0 0 31.704615-27.648l0.315077-4.332307V352.019692h-64v138.633846h-138.67323v64H768z" fill="#2c2c2c" p-id="54535"></path><path d="M341.346462 277.346462m64 0l0 0q64 0 64 64l0 0q0 64-64 64l0 0q-64 0-64-64l0 0q0-64 64-64Z" fill="#2c2c2c" p-id="54536"></path><path d="M298.653538 896m64 0l0 0q64 0 64 64l0 0q0 64-64 64l0 0q-64 0-64-64l0 0q0-64 64-64Z" fill="#2c2c2c" p-id="54537"></path><path d="M725.346462 746.653538m64 0l0 0q64 0 64 64l0 0q0 64-64 64l0 0q-64 0-64-64l0 0q0-64 64-64Z" fill="#2c2c2c" p-id="54538"></path><path d="M704 341.346462m64 0l0 0q64 0 64 64l0 0q0 64-64 64l0 0q-64 0-64-64l0 0q0-64 64-64Z" fill="#2c2c2c" p-id="54539"></path><path d="M640 853.346462m64 0l0 0q64 0 64 64l0 0q0 64-64 64l0 0q-64 0-64-64l0 0q0-64 64-64Z" fill="#2c2c2c" p-id="54540"></path><path d="M640 149.346462m64 0l0 0q64 0 64 64l0 0q0 64-64 64l0 0q-64 0-64-64l0 0q0-64 64-64Z" fill="#2c2c2c" p-id="54541"></path><path d="M170.653538 490.653538m64 0l0 0q64 0 64 64l0 0q0 64-64 64l0 0q-64 0-64-64l0 0q0-64 64-64Z" fill="#2c2c2c" p-id="54542"></path><path d="M128 768m64 0l0 0q64 0 64 64l0 0q0 64-64 64l0 0q-64 0-64-64l0 0q0-64 64-64Z" fill="#2c2c2c" p-id="54543"></path><path d="M425.353846 522.633846v64.039385H213.464615V522.633846zM170.771692 864.019692h42.653539v-64H170.771692v64z m85.307077 0h42.692923v-64H256.078769v64z m85.346462 0H384v-64H341.425231v64zM500.775385 949.326769h42.653538V885.366154h-42.653538v64z m85.307077 0h42.692923V885.366154H586.043077v64z m85.346461 0h9.964308V885.366154h-9.964308v64z" fill="#2c2c2c" p-id="54544"></path></svg>