<svg version="1.1" viewBox="0.0 0.0 400.0 400.0" fill="none" stroke="none" stroke-linecap="square" stroke-miterlimit="10" xmlns:xlink="http://www.w3.org/1999/xlink" xmlns="http://www.w3.org/2000/svg"  width="16" height="16"><clipPath id="p.0"><path d="m0 0l400.0 0l0 400.0l-400.0 0l0 -400.0z" clip-rule="nonzero"/></clipPath><g clip-path="url(#p.0)"><path fill="#000000" fill-opacity="0.0" d="m0 0l400.0 0l0 400.0l-400.0 0z" fill-rule="evenodd"/><path fill="#000000" fill-opacity="0.0" d="m22.969969 171.21591l65.98425 -1.6377869" fill-rule="evenodd"/><path stroke="#000000" stroke-width="24.0" stroke-linejoin="round" stroke-linecap="butt" d="m22.969969 171.21591l65.98425 -1.6377869" fill-rule="evenodd"/><path fill="#000000" fill-opacity="0.0" d="m14.409449 321.85303l247.52756 0.72439575" fill-rule="evenodd"/><path stroke="#000000" stroke-width="24.0" stroke-linejoin="round" stroke-linecap="butt" d="m14.409449 321.85303l247.52756 0.72439575" fill-rule="evenodd"/><path fill="#000000" fill-opacity="0.0" d="m147.01819 142.9054l54.427628 0l0 100.755905l46.48575 0" fill-rule="evenodd"/><path stroke="#000000" stroke-width="24.0" stroke-linejoin="round" stroke-linecap="butt" d="m147.01819 142.9054l54.427628 0l0 100.755905l46.48575 0" fill-rule="evenodd"/><path fill="#ffffff" d="m226.56036 221.48488l56.75592 0l0 0c31.345398 0 56.75589 28.978104 56.75589 64.72441c0 35.746307 -25.410492 64.724396 -56.75589 64.724396l-56.75592 0z" fill-rule="evenodd"/><path stroke="#000000" stroke-width="24.0" stroke-linejoin="round" stroke-linecap="butt" d="m226.56036 221.48488l56.75592 0l0 0c31.345398 0 56.75589 28.978104 56.75589 64.72441c0 35.746307 -25.410492 64.724396 -56.75589 64.724396l-56.75592 0z" fill-rule="evenodd"/><path fill="#000000" fill-opacity="0.0" d="m22.969969 104.381615l65.98425 -1.6377945" fill-rule="evenodd"/><path stroke="#000000" stroke-width="24.0" stroke-linejoin="round" stroke-linecap="butt" d="m22.969969 104.381615l65.98425 -1.6377945" fill-rule="evenodd"/><path fill="#ffffff" d="m144.41678 209.17384l-100.255356 0c11.073898 0 20.051067 -30.375 20.051067 -67.84448c0 -37.469475 -8.977169 -67.84449 -20.051067 -67.84449l100.255356 0l0 0c11.073898 0 20.051071 30.375015 20.051071 67.84449c0 37.469482 -8.977173 67.84448 -20.051071 67.84448z" fill-rule="evenodd"/><path stroke="#000000" stroke-width="24.0" stroke-linejoin="round" stroke-linecap="butt" d="m144.41678 209.17384l-100.255356 0c11.073898 0 20.051067 -30.375 20.051067 -67.84448c0 -37.469475 -8.977169 -67.84449 -20.051067 -67.84449l100.255356 0l0 0c11.073898 0 20.051071 30.375015 20.051071 67.84449c0 37.469482 -8.977173 67.84448 -20.051071 67.84448z" fill-rule="evenodd"/><path fill="#000000" fill-opacity="0.0" d="m672.72705 -3.031496l0 32.33071l64.66138 0l0 32.330708" fill-rule="evenodd"/><path stroke="#595959" stroke-width="1.0" stroke-linejoin="round" stroke-linecap="butt" d="m672.72705 -3.031496l0 32.33071l64.66138 0l0 32.330708" fill-rule="evenodd"/><path fill="#000000" fill-opacity="0.0" d="m336.2651 290.72702l94.70865 1.3228455" fill-rule="evenodd"/><path stroke="#000000" stroke-width="24.0" stroke-linejoin="round" stroke-linecap="butt" d="m336.2651 290.72702l94.70865 1.3228455" fill-rule="evenodd"/></g></svg>