<?xml version="1.0" standalone="no"?><!DOCTYPE svg PUBLIC "-//W3C//DTD SVG 1.1//EN" "http://www.w3.org/Graphics/SVG/1.1/DTD/svg11.dtd"><svg t="1694966174466" class="icon" viewBox="0 0 1024 1024" version="1.1" xmlns="http://www.w3.org/2000/svg" p-id="7222" xmlns:xlink="http://www.w3.org/1999/xlink" width="16" height="16"><path d="M499.2 454.656c132.608 0 248.832-35.328 312.832-88.064v70.656h52.224V272.896c0-100.864-163.328-182.784-364.544-182.784s-364.544 81.92-364.544 182.272v495.104c0 86.528 163.328 156.16 364.544 156.16v-51.712c-172.544 0-312.832-46.592-312.832-104.448v-75.776c55.296 39.424 150.016 67.584 260.608 74.24v-52.224c-147.968-8.192-260.608-51.2-260.608-102.912v-75.776c55.296 39.424 150.016 67.584 260.608 74.24v-52.224c-147.968-8.192-260.608-51.2-260.608-102.912V366.592c63.488 52.736 179.712 88.064 312.32 88.064zM186.368 272.384c0-71.68 139.776-130.56 312.832-130.56s312.832 58.368 312.832 130.56-139.776 130.048-312.32 130.048-313.344-58.368-313.344-130.048z" p-id="7223"></path><path d="M839.168 828.416c-19.456 0-36.864 8.192-49.664 20.992l-167.936-93.184c5.12-9.728 8.192-19.968 8.192-31.744 0-6.656-1.536-13.312-3.072-19.456l165.376-102.912c12.288 11.264 28.672 17.92 46.08 17.92 38.4 0 69.632-31.232 69.632-69.632S876.544 481.28 838.656 481.28s-69.632 31.232-69.632 69.632c0 7.68 1.536 15.36 4.096 22.528l-163.84 101.888c-12.8-12.288-29.696-19.968-48.64-19.968-38.4 0-69.632 31.232-69.632 69.632s31.232 69.632 69.632 69.632c13.824 0 27.136-4.096 37.888-11.264l174.592 96.768c-1.536 6.144-2.56 12.288-2.56 18.432 0 38.4 31.232 69.632 69.632 69.632s69.632-31.232 69.632-69.632-32.256-70.144-70.656-70.144z m-0.512-312.32c18.944 0 34.816 15.36 34.816 34.816s-15.36 34.816-34.816 34.816c-18.944 0-34.816-15.36-34.816-34.816s15.36-34.816 34.816-34.816z m-313.344 208.384c0-18.944 15.36-34.816 34.816-34.816s34.816 15.36 34.816 34.816c0 18.944-15.36 34.816-34.816 34.816-18.944 0-34.816-15.36-34.816-34.816z m313.856 208.384c-18.944 0-34.816-15.36-34.816-34.816 0-18.944 15.36-34.816 34.816-34.816 18.944 0 34.816 15.36 34.816 34.816s-15.36 34.816-34.816 34.816z" p-id="7224"></path></svg>