<svg version="1.1" viewBox="0.0 0.0 400.0 400.0" fill="none" stroke="none" stroke-linecap="square" stroke-miterlimit="10" xmlns:xlink="http://www.w3.org/1999/xlink" xmlns="http://www.w3.org/2000/svg"  width="16" height="16"><clipPath id="g2801e869291_0_8.0"><path d="m0 0l400.0 0l0 400.0l-400.0 0l0 -400.0z" clip-rule="nonzero"/></clipPath><g clip-path="url(#g2801e869291_0_8.0)"><path fill="#000000" fill-opacity="0.0" d="m0 0l400.0 0l0 400.0l-400.0 0z" fill-rule="evenodd"/><path fill="#ffffff" d="m123.89501 122.88714l136.12598 0l0 41.291344l-136.12598 0z" fill-rule="evenodd"/><path stroke="#000000" stroke-width="24.0" stroke-linejoin="round" stroke-linecap="butt" d="m123.89501 122.88714l136.12598 0l0 41.291344l-136.12598 0z" fill-rule="evenodd"/><path fill="#000000" fill-opacity="0.0" d="m2.4094489 219.51706l397.6063 -2.2047272" fill-rule="evenodd"/><path stroke="#000000" stroke-width="24.0" stroke-linejoin="round" stroke-linecap="butt" d="m2.4094489 219.51706l397.6063 -2.2047272" fill-rule="evenodd"/><path fill="#000000" fill-opacity="0.0" d="m143.90227 217.31496c-4.103546 9.079712 -14.019485 38.673584 -24.621338 54.478287c-10.601852 15.8046875 -17.101746 28.5802 -38.989777 40.349915c-21.888031 11.769714 -76.94868 25.223602 -92.33841 30.26831" fill-rule="evenodd"/><path stroke="#000000" stroke-width="24.0" stroke-linejoin="round" stroke-linecap="butt" d="m143.90227 217.31496c-4.103546 9.079712 -14.019485 38.673584 -24.621338 54.478287c-10.601852 15.8046875 -17.101746 28.5802 -38.989777 40.349915c-21.888031 11.769714 -76.94868 25.223602 -92.33841 30.26831" fill-rule="evenodd"/><path fill="#000000" fill-opacity="0.0" d="m230.57854 215.0105c4.679947 9.858734 15.988693 41.99173 28.079697 59.152435c12.091034 17.160736 19.503906 31.032349 44.4664 43.81189c24.962463 12.779541 87.75705 27.387756 105.30847 32.865295" fill-rule="evenodd"/><path stroke="#000000" stroke-width="24.0" stroke-linejoin="round" stroke-linecap="butt" d="m230.57854 215.0105c4.679947 9.858734 15.988693 41.99173 28.079697 59.152435c12.091034 17.160736 19.503906 31.032349 44.4664 43.81189c24.962463 12.779541 87.75705 27.387756 105.30847 32.865295" fill-rule="evenodd"/><path fill="#000000" fill-opacity="0.0" d="m120.22133 294.64597l139.62206 -0.56692505" fill-rule="evenodd"/><path stroke="#000000" stroke-width="8.0" stroke-linejoin="round" stroke-linecap="butt" stroke-dasharray="32.0,24.0,8.0,24.0" d="m120.22133 294.64597l139.62206 -0.56692505" fill-rule="evenodd"/><path fill="#ffffff" d="m123.89501 167.02335l136.12598 0l0 41.29135l-136.12598 0z" fill-rule="evenodd"/><path stroke="#000000" stroke-width="24.0" stroke-linejoin="round" stroke-linecap="butt" d="m123.89501 167.02335l136.12598 0l0 41.29135l-136.12598 0z" fill-rule="evenodd"/><path fill="#000000" fill-opacity="0.0" d="m52.979004 214.88715l1.322834 -91.40158" fill-rule="evenodd"/><path stroke="#000000" stroke-width="12.0" stroke-linejoin="round" stroke-linecap="butt" d="m52.979004 214.88715l0.6646805 -45.926346" fill-rule="evenodd"/><path stroke="#000000" stroke-width="12.0" stroke-linecap="butt" d="m54.21501 129.48494c10.900955 0.15776062 19.610031 9.122635 19.45227 20.02359c-0.15776825 10.900955 -9.1226425 19.610031 -20.023598 19.45227c-10.900959 -0.15776062 -19.610035 -9.122635 -19.45227 -20.02359c0.15776825 -10.90097 9.122639 -19.610046 20.023598 -19.45227z" fill-rule="nonzero"/><path fill="#000000" fill-opacity="0.0" d="m189.37007 120.04199l1.3228455 -91.40157" fill-rule="evenodd"/><path stroke="#000000" stroke-width="12.0" stroke-linejoin="round" stroke-linecap="butt" d="m189.37007 120.04199l0.6646881 -45.92634" fill-rule="evenodd"/><path stroke="#000000" stroke-width="12.0" stroke-linecap="butt" d="m190.60608 34.639793c10.90097 0.15776443 19.610046 9.122635 19.45227 20.023594c-0.15776062 10.900959 -9.122635 19.610035 -20.02359 19.452267c-10.900955 -0.15776825 -19.610031 -9.122635 -19.45227 -20.023594c0.15777588 -10.900959 9.122635 -19.610035 20.02359 -19.452267z" fill-rule="nonzero"/><path fill="#000000" fill-opacity="0.0" d="m329.61417 208.31496l1.3228455 -91.40157" fill-rule="evenodd"/><path stroke="#000000" stroke-width="12.0" stroke-linejoin="round" stroke-linecap="butt" d="m329.61417 208.31496l0.66467285 -45.92633" fill-rule="evenodd"/><path stroke="#000000" stroke-width="12.0" stroke-linecap="butt" d="m330.8502 122.91276c10.90094 0.15776825 19.610016 9.1226425 19.45227 20.023598c-0.15777588 10.900955 -9.12265 19.610031 -20.02359 19.45227c-10.90097 -0.15777588 -19.610046 -9.122635 -19.45227 -20.023605c0.15774536 -10.900955 9.12262 -19.610031 20.02359 -19.452263z" fill-rule="nonzero"/></g></svg>