<?xml version="1.0" standalone="no"?><!DOCTYPE svg PUBLIC "-//W3C//DTD SVG 1.1//EN" "http://www.w3.org/Graphics/SVG/1.1/DTD/svg11.dtd"><svg t="1694968505579" class="icon" viewBox="0 0 1024 1024" version="1.1" xmlns="http://www.w3.org/2000/svg" p-id="35047" xmlns:xlink="http://www.w3.org/1999/xlink" width="16" height="16"><path d="M864 800H160c-70.592 0-128-57.408-128-128V160c0-70.592 57.408-128 128-128h704c70.592 0 128 57.408 128 128v512c0 70.592-57.408 128-128 128zM160 96c-35.296 0-64 28.704-64 64v512c0 35.296 28.704 64 64 64h704c35.296 0 64-28.704 64-64V160c0-35.296-28.704-64-64-64H160z" p-id="35048"></path><path d="M608 992h-192a32 32 0 0 1-32-32v-192a32 32 0 0 1 32-32h192a32 32 0 0 1 32 32v192a32 32 0 0 1-32 32z m-160-64h128v-128h-128v128z" p-id="35049"></path><path d="M608 992h-192a32 32 0 0 1-32-32v-192a32 32 0 0 1 32-32h192a32 32 0 0 1 32 32v192a32 32 0 0 1-32 32z m-160-64h128v-128h-128v128z" p-id="35050"></path><path d="M784 992h-544a32 32 0 0 1 0-64h544a32 32 0 0 1 0 64zM928 678.4H64a32 32 0 0 1 0-64h864a32 32 0 0 1 0 64zM192 323.232a32 32 0 0 1-32-32V224c0-35.296 28.704-64 64-64h64a32 32 0 0 1 0 64H224v67.232a32 32 0 0 1-32 32z" p-id="35051"></path></svg>