<?xml version="1.0" standalone="no"?><!DOCTYPE svg PUBLIC "-//W3C//DTD SVG 1.1//EN" "http://www.w3.org/Graphics/SVG/1.1/DTD/svg11.dtd"><svg t="1694966289016" class="icon" viewBox="0 0 1024 1024" version="1.1" xmlns="http://www.w3.org/2000/svg" p-id="11882" xmlns:xlink="http://www.w3.org/1999/xlink" width="16" height="16"><path d="M928.426667 597.333333c-14.2336 58.606933-44.407467 110.933333-90.4704 157.013334a366.250667 366.250667 0 0 1-14.523734 13.653333c-63.709867 57.4464-139.076267 86.186667-226.133333 86.186667V938.666667L341.333333 768l257.706667-256v85.333333H682.666667c155.886933 0.5632 241.220267-84.770133 256-256v170.666667c0 29.559467-3.413333 58.026667-10.24 85.333333z" p-id="11883"></path><path d="M597.316267 955.733333c-3.310933 0-6.621867-0.9728-9.472-2.8672l-255.982934-170.666666a17.015467 17.015467 0 0 1-2.542933-26.299734l257.6896-256A17.066667 17.066667 0 0 1 616.106667 512v68.266667H682.666667c147.3536 0 225.041067-78.626133 239.0016-240.401067 0.785067-9.1136 8.874667-15.991467 17.732266-15.581867A17.066667 17.066667 0 0 1 955.733333 341.333333v170.666667c0 30.8224-3.618133 60.910933-10.752 89.463467-14.882133 61.2864-46.830933 116.821333-94.941866 164.949333-4.795733 4.778667-9.864533 9.540267-15.223467 14.318933-62.395733 56.2688-136.4992 86.562133-220.433067 90.146134V938.666667a17.066667 17.066667 0 0 1-17.066666 17.066666zM368.1792 765.3888l212.0704 141.397333V854.186667a17.066667 17.066667 0 0 1 17.066667-17.066667c82.261333 0 154.5216-27.511467 214.698666-81.800533 4.949333-4.4032 9.557333-8.721067 13.892267-13.056 43.605333-43.6224 72.516267-93.7472 85.930667-148.974934 6.5024-25.941333 9.762133-53.248 9.762133-81.288533v-31.726933C879.121067 569.3952 799.6928 614.4 684.202667 614.4H599.04a17.066667 17.066667 0 0 1-17.066667-17.066667v-44.322133L368.1792 765.3888z" p-id="11884"></path><path d="M85.333333 699.733333l-0.733866-0.017066A17.066667 17.066667 0 0 1 68.266667 682.666667V512c0-30.8224 3.618133-60.928 10.752-89.480533 14.865067-61.269333 46.813867-116.804267 94.941866-164.949334 4.795733-4.778667 9.864533-9.557333 15.223467-14.318933C251.5456 187.016533 325.649067 156.706133 409.6 153.122133V85.333333a17.066667 17.066667 0 0 1 26.5216-14.199466l256 170.666666a17.066667 17.066667 0 0 1 2.56 26.299734l-257.723733 256A17.066667 17.066667 0 0 1 407.893333 512v-68.266667H341.333333c-147.336533 0-225.024 78.626133-239.0016 240.401067A17.066667 17.066667 0 0 1 85.333333 699.733333zM443.733333 117.230933V169.813333a17.066667 17.066667 0 0 1-17.066666 17.066667c-82.295467 0-154.538667 27.511467-214.698667 81.783467-4.949333 4.4032-9.557333 8.721067-13.8752 13.056-43.6224 43.6224-72.533333 93.7472-85.930667 148.974933A335.36 335.36 0 0 0 102.4 512v31.744C144.878933 454.6048 224.3072 409.6 339.797333 409.6h85.162667a17.066667 17.066667 0 0 1 17.066667 17.066667v44.322133l213.794133-212.3776L443.733333 117.230933z" p-id="11885"></path></svg>