<?xml version="1.0" standalone="no"?><!DOCTYPE svg PUBLIC "-//W3C//DTD SVG 1.1//EN" "http://www.w3.org/Graphics/SVG/1.1/DTD/svg11.dtd"><svg t="1694966518492" class="icon" viewBox="0 0 1024 1024" version="1.1" xmlns="http://www.w3.org/2000/svg" p-id="25060" xmlns:xlink="http://www.w3.org/1999/xlink" width="16" height="16"><path d="M964 319.4L488 93.1c-8.2-3.9-17.6-4.2-26-0.8L200.4 197.2c-12.4 5-20.4 17-20.4 30.3l0.3 77.3c0.1 12.8-7.4 24.4-19 29.7l-92.8 42c-11.6 5.3-19.1 16.8-19 29.6v289.1c0 12.2 6.8 23.3 17.6 28.8l366.8 188c9 4.6 19.7 4.8 28.9 0.4l172.3-82.9c11.1-5.3 18.2-16.5 18.4-28.7l2.6-169.2L770 577.8l0.8 132.6c0.1 17.9 14.7 32.4 32.6 32.3 4.5 0 9-1 13.2-2.9l146.8-66.4c11.6-5.3 19.1-16.8 19.1-29.6V348.7c0-12.5-7.2-23.9-18.5-29.3z m-737.5-61l49.2 25.3-16 7.1-33.2 14.8v-47.2z m79.5 62.2v171.8l-180.1-92L306 320.6zM424.3 856L117.4 699.2c-21.6-12.9-21.8-22.2-21.8-53.1V436.5l223 114 105.7 54V856zM352 516l-0.1-242.5-93.1-50.1 214.3-86.6 434 211.8-459.5 216.2L352 516z m464.1 178.5l0.2-135.7c0-17.9-14.5-32.5-32.4-32.5-4.6 0-9.1 1-13.2 2.8l-140.5 62.6c-11.7 5.2-19.2 16.8-19.2 29.6v170l-140.5 66V605.1l467-220v255.6l-121.4 53.8z" fill="#2C2C2C" p-id="25061"></path></svg>