<?xml version="1.0" standalone="no"?><!DOCTYPE svg PUBLIC "-//W3C//DTD SVG 1.1//EN" "http://www.w3.org/Graphics/SVG/1.1/DTD/svg11.dtd"><svg t="1694969806607" class="icon" viewBox="0 0 1024 1024" version="1.1" xmlns="http://www.w3.org/2000/svg" p-id="59138" xmlns:xlink="http://www.w3.org/1999/xlink" width="16" height="16"><path d="M66.022159 15.011925h284.361802c22.133897 0 39.991045 17.351529 39.991045 38.23475v534.984663l235.568906-224.349763a40.317087 40.317087 0 0 1 56.186144 0 35.454481 35.454481 0 0 1 11.918351 26.591498v197.758265l234.984324-224.349763a41.029029 41.029029 0 0 1 56.761811 0 35.16028 35.16028 0 0 1 11.630517 26.591498v580.252232c0 21.183791-17.891535 38.260222-40.025432 38.260223H66.022159c-22.160643 0-39.473963-17.076431-39.473964-38.260223V53.246675c0-20.887043 17.314594-38.23475 39.473964-38.23475z m39.997413 546.653387h204.338956v-125.621552H106.019572v125.621552z m204.338956 45.821586H106.019572v325.007478h811.385189V482.691913l-235.274705 225.172508c-6.80994 7.036641-17.025487 10.842158-27.791229 10.842158-22.160643 0-40.313266-16.801333-40.313265-38.509848V482.691913l-235.274705 225.172508a40.458456 40.458456 0 0 1-28.366896 10.842158c-21.872809 0-40.025432-16.801333-40.025433-38.509848v-72.709833z m0-515.981274H106.019572v126.948643h204.338956V91.505624zM106.019572 264.576423v125.621552h204.338956v-125.621552H106.019572z" fill="#2c2c2c" p-id="59139"></path></svg>
