<?xml version="1.0" standalone="no"?><!DOCTYPE svg PUBLIC "-//W3C//DTD SVG 1.1//EN" "http://www.w3.org/Graphics/SVG/1.1/DTD/svg11.dtd"><svg t="1695044980191" class="icon" viewBox="0 0 1024 1024" version="1.1" xmlns="http://www.w3.org/2000/svg" p-id="5133" xmlns:xlink="http://www.w3.org/1999/xlink" width="16" height="16"><path d="M401.489826 1021.574111l-390.990092-210.894655C3.999899 807.179545 0 800.379717 0 793.079902V400.689846c0-15.099617 16.199589-24.799372 29.499252-17.599554l390.990092 210.894655c6.499835 3.499911 10.499734 10.299739 10.499734 17.599554V1003.974557c0 15.099617-16.099592 24.799372-29.499252 17.599554z m-340.991359-240.793897l290.992626 156.996021c13.299663 7.199818 29.499252-2.499937 29.499252-17.599554V641.383746c0-7.399812-3.999899-14.099643-10.499734-17.599554l-290.992626-156.996021c-13.299663-7.199818-29.499252 2.499937-29.499252 17.599554v278.792935c0 7.399812 3.999899 14.099643 10.499734 17.599554zM592.984973 1003.974557V611.584501c0-7.399812 3.999899-14.099643 10.499734-17.599554l390.990091-210.894655c13.299663-7.199818 29.499252 2.499937 29.499253 17.599554v392.390056c0 7.399812-3.999899 14.099643-10.499734 17.599554l-390.990092 210.894655c-13.39966 7.199818-29.499252-2.499937-29.499252-17.599554z m49.998733-362.590811v278.792935c0 15.099617 16.199589 24.799372 29.499252 17.599554l290.992626-156.996021c6.499835-3.499911 10.499734-10.299739 10.499734-17.599554V484.387725c0-15.099617-16.199589-24.799372-29.499253-17.599554l-290.992625 156.996021c-6.499835 3.499911-10.499734 10.299739-10.499734 17.599554zM950.575911 259.993411c0.099997-0.199995 0.199995-0.39999 0.299992-0.699982 0.099997-0.199995 0.199995-0.299992 0.199995-0.499987 0.099997-0.099997 0.099997-0.299992 0.199995-0.39999 1.099972-2.899927 1.699957-5.799853 1.699957-8.69978v-0.299992-0.299992c0-2.899927-0.599985-5.89985-1.699957-8.69978-0.099997-0.099997-0.099997-0.299992-0.199995-0.39999-0.099997-0.199995-0.099997-0.299992-0.199995-0.499987s-0.199995-0.499987-0.299992-0.699982c-0.099997-0.099997-0.099997-0.199995-0.199995-0.299993-0.099997-0.299992-0.299992-0.599985-0.39999-0.79998v-0.099997c0-0.099997-0.099997-0.099997-0.099998-0.199995-0.199995-0.299992-0.299992-0.599985-0.499987-0.899977 0-0.099997-0.099997-0.099997-0.099997-0.199995-0.199995-0.299992-0.299992-0.599985-0.499988-0.79998-0.099997-0.099997-0.099997-0.199995-0.199995-0.299992-0.199995-0.199995-0.299992-0.499987-0.499987-0.699983-0.099997-0.099997-0.199995-0.199995-0.199995-0.299992-0.199995-0.199995-0.299992-0.39999-0.499987-0.599985-0.099997-0.099997-0.199995-0.199995-0.299993-0.39999-0.199995-0.199995-0.299992-0.39999-0.499987-0.499987l-0.39999-0.39999-0.39999-0.39999-0.499987-0.499987c-0.099997-0.099997-0.299992-0.199995-0.39999-0.39999-0.199995-0.199995-0.39999-0.299992-0.599985-0.499987l-0.299992-0.299993c-0.199995-0.199995-0.39999-0.39999-0.699982-0.499987-0.099997-0.099997-0.199995-0.099997-0.299993-0.199995-0.299992-0.199995-0.499987-0.39999-0.799979-0.599985l-0.199995-0.199995-0.899978-0.599984c-0.099997 0-0.099997-0.099997-0.199994-0.099998-0.299992-0.199995-0.599985-0.39999-0.899978-0.499987 0 0-0.099997 0-0.099997-0.099998l-0.199995-0.099997s-0.099997 0-0.099998-0.099998L526.286663 3.599909c-8.899774-4.799878-19.599503-4.799878-28.499278 0L84.397861 227.194242h-0.099997l-0.199995 0.099998-0.099998 0.099997c-0.299992 0.199995-0.599985 0.299992-0.899977 0.499988-0.099997 0-0.099997 0.099997-0.199995 0.099997-0.299992 0.199995-0.599985 0.39999-0.899977 0.499988-0.099997 0.099997-0.199995 0.099997-0.199995 0.199994-0.299992 0.199995-0.499987 0.39999-0.79998 0.499988-0.099997 0.099997-0.199995 0.099997-0.299992 0.199995-0.199995 0.199995-0.39999 0.299992-0.699982 0.499987l-0.299993 0.299992c-0.199995 0.199995-0.39999 0.299992-0.599984 0.499988-0.099997 0.099997-0.299992 0.199995-0.39999 0.39999-0.199995 0.099997-0.299992 0.299992-0.499988 0.499987-0.099997 0.099997-0.299992 0.299992-0.39999 0.499987l-0.399989 0.39999c-0.199995 0.199995-0.299992 0.39999-0.499988 0.499988-0.099997 0.099997-0.199995 0.199995-0.299992 0.399989-0.199995 0.199995-0.299992 0.39999-0.499987 0.599985-0.099997 0.099997-0.099997 0.199995-0.199995 0.299993-0.199995 0.199995-0.39999 0.499987-0.499988 0.699982-0.099997 0.099997-0.099997 0.199995-0.199995 0.199995-0.199995 0.299992-0.39999 0.599985-0.499987 0.799979 0 0.099997-0.099997 0.099997-0.099997 0.199995-0.199995 0.299992-0.299992 0.599985-0.499988 0.899978 0 0.099997-0.099997 0.099997-0.099997 0.199995v0.099997c-0.099997 0.299992-0.299992 0.599985-0.39999 0.79998-0.099997 0.099997-0.099997 0.199995-0.199995 0.299992-0.099997 0.199995-0.199995 0.39999-0.299992 0.699982-0.099997 0.199995-0.199995 0.299992-0.199995 0.499988-0.099997 0.099997-0.099997 0.299992-0.199995 0.39999-1.099972 2.899927-1.699957 5.799853-1.699957 8.699779v0.599985c0 2.899927 0.599985 5.89985 1.699957 8.699779 0.099997 0.099997 0.099997 0.299992 0.199995 0.39999 0.099997 0.199995 0.099997 0.299992 0.199995 0.499988s0.199995 0.499987 0.299992 0.699982c0.099997 0.099997 0.099997 0.199995 0.199995 0.299992 0.099997 0.299992 0.299992 0.599985 0.39999 0.79998v0.099997c0 0.099997 0.099997 0.099997 0.099997 0.199995 0.199995 0.299992 0.299992 0.599985 0.499988 0.899978 0 0.099997 0.099997 0.099997 0.099997 0.199995 0.199995 0.299992 0.299992 0.599985 0.499987 0.799979 0.099997 0.099997 0.099997 0.199995 0.199995 0.299993 0.199995 0.199995 0.299992 0.499987 0.499988 0.699982 0.099997 0.099997 0.199995 0.199995 0.199995 0.299992 0.199995 0.199995 0.299992 0.39999 0.499987 0.599985 0.099997 0.099997 0.199995 0.199995 0.299992 0.39999 0.199995 0.199995 0.299992 0.39999 0.499988 0.499987l0.399989 0.39999 0.39999 0.39999 0.499988 0.499987c0.099997 0.099997 0.299992 0.199995 0.39999 0.39999 0.199995 0.199995 0.39999 0.299992 0.599984 0.499988l0.299993 0.299992c0.199995 0.199995 0.39999 0.39999 0.699982 0.499987 0.099997 0.099997 0.199995 0.099997 0.299992 0.199995 0.299992 0.199995 0.499987 0.39999 0.79998 0.599985l0.199995 0.199995 0.899977 0.599985c0.099997 0 0.099997 0.099997 0.199995 0.099997 0.299992 0.199995 0.599985 0.39999 0.899977 0.499988l0.099998 0.099997 0.199995 0.099997s0.099997 0 0.099997 0.099998L497.687388 494.987456c8.899774 4.799878 19.599503 4.799878 28.499277 0l413.589519-223.694331c0.099997-0.099997 0.199995-0.099997 0.39999-0.199995l0.599985-0.299992c0.299992-0.199995 0.499987-0.299992 0.79998-0.499988 0.199995-0.099997 0.39999-0.299992 0.599985-0.39999 0.299992-0.199995 0.699982-0.499987 0.999974-0.699982 0.099997-0.099997 0.299992-0.199995 0.39999-0.39999 0.299992-0.199995 0.499987-0.39999 0.79998-0.599984 0.099997-0.099997 0.299992-0.199995 0.39999-0.299993 0.79998-0.699982 1.499962-1.399965 2.099946-2.199944 0.099997-0.099997 0.099997-0.199995 0.199995-0.199995 0.299992-0.39999 0.599985-0.79998 0.899978-1.099972 0 0 0-0.099997 0.099997-0.099998 0.299992-0.499987 0.599985-0.899977 0.899977-1.399964 0 0 0-0.099997 0.099998-0.099998 0.299992-0.39999 0.599985-0.899977 0.799979-1.399964 0 0 0-0.099997 0.099998-0.099998v-0.099997c0.099997-0.299992 0.299992-0.599985 0.39999-0.79998 0.099997-0.199995 0.199995-0.299992 0.199995-0.39999z m-769.4805-28.299283L497.687388 60.498467c8.899774-4.799878 19.599503-4.799878 28.499277 0l316.691975 171.295659c13.999645 7.599807 13.999645 27.599301 0 35.199108L526.286663 438.188896c-8.899774 4.799878-19.599503 4.799878-28.499278 0L181.095411 266.893236c-13.999645-7.599807-13.999645-27.599301 0-35.199108z" p-id="5134" fill="#2c2c2c"></path></svg>