<?xml version="1.0" standalone="no"?><!DOCTYPE svg PUBLIC "-//W3C//DTD SVG 1.1//EN" "http://www.w3.org/Graphics/SVG/1.1/DTD/svg11.dtd"><svg t="1694966322314" class="icon" viewBox="0 0 1024 1024" version="1.1" xmlns="http://www.w3.org/2000/svg" p-id="13014" xmlns:xlink="http://www.w3.org/1999/xlink" width="16" height="16"><path d="M516.5 869c-49.4 0-97.3-9.7-142.5-28.8-43.6-18.4-82.7-44.8-116.3-78.4s-60-72.7-78.4-116.3c-19.1-45.1-28.8-93.1-28.8-142.5s9.7-97.3 28.8-142.5c18.4-43.6 44.8-82.7 78.4-116.3 33.6-33.6 72.7-60 116.3-78.4 45.1-19.1 93.1-28.8 142.5-28.8s97.3 9.7 142.5 28.8c43.6 18.4 82.7 44.8 116.3 78.4 33.6 33.6 60 72.7 78.4 116.3 19.1 45.1 28.8 93.1 28.8 142.5s-9.7 97.3-28.8 142.5c-18.4 43.6-44.8 82.7-78.4 116.3-33.6 33.6-72.7 60-116.3 78.4-45.1 19.1-93.1 28.8-142.5 28.8z m0-660c-162.1 0-294 131.9-294 294s131.9 294 294 294 294-131.9 294-294-131.9-294-294-294z" p-id="13015"></path><path d="M436 341.3L676.1 497 436 652.6z" p-id="13016"></path></svg>