<?xml version="1.0" standalone="no"?><!DOCTYPE svg PUBLIC "-//W3C//DTD SVG 1.1//EN" "http://www.w3.org/Graphics/SVG/1.1/DTD/svg11.dtd"><svg t="1694970824154" class="icon" viewBox="0 0 1024 1024" version="1.1" xmlns="http://www.w3.org/2000/svg" p-id="67523" xmlns:xlink="http://www.w3.org/1999/xlink" width="16" height="16"><path d="M880.64 819.2H143.36C61.44 819.2 0 757.76 0 675.84V143.36C0 61.44 61.44 0 143.36 0h742.4C962.56 0 1024 61.44 1024 143.36v537.6c0 76.8-61.44 138.24-143.36 138.24zM143.36 76.8c-35.84 0-61.44 30.72-61.44 61.44v537.6c0 35.84 30.72 61.44 61.44 61.44h742.4c35.84 0 61.44-30.72 61.44-61.44V143.36c0-35.84-30.72-61.44-61.44-61.44H143.36z" fill="#2c2c2c" p-id="67524"></path><path d="M378.88 808.96l-56.32 133.12h378.88l-56.32-133.12z" fill="#2c2c2c" p-id="67525"></path><path d="M256 921.6h512c30.72 0 51.2 20.48 51.2 51.2s-20.48 51.2-51.2 51.2H256c-30.72 0-51.2-20.48-51.2-51.2s20.48-51.2 51.2-51.2z" fill="#2c2c2c" p-id="67526"></path><path d="M389.12 563.2c-20.48 0-40.96 0-56.32-5.12-15.36-5.12-30.72-10.24-40.96-25.6s-20.48-25.6-25.6-46.08S256 440.32 256 409.6s5.12-56.32 10.24-76.8 15.36-35.84 25.6-46.08c10.24-10.24 25.6-20.48 40.96-25.6 20.48-5.12 35.84-5.12 56.32-5.12 20.48 0 40.96 0 56.32 5.12 15.36 5.12 30.72 10.24 40.96 25.6 10.24 10.24 20.48 25.6 25.6 46.08s10.24 46.08 10.24 76.8-5.12 56.32-10.24 76.8-15.36 35.84-25.6 46.08c-10.24 10.24-25.6 20.48-40.96 25.6-15.36 5.12-30.72 5.12-56.32 5.12z m0-71.68c10.24 0 20.48 0 25.6-5.12 5.12-5.12 10.24-5.12 15.36-15.36 5.12 0 5.12-10.24 10.24-20.48s0-25.6 0-40.96v-40.96c0-10.24-5.12-20.48-5.12-25.6s-15.36-10.24-20.48-15.36h-25.6c-10.24 0-20.48 0-25.6 5.12l-10.24 10.24c-5.12 5.12-5.12 15.36-10.24 25.6v81.92c0 10.24 5.12 20.48 5.12 25.6 10.24 5.12 10.24 10.24 20.48 10.24 5.12 5.12 10.24 5.12 20.48 5.12zM650.24 563.2c-15.36 0-30.72 0-46.08-5.12s-25.6-5.12-35.84-5.12V481.28c5.12 0 10.24 5.12 15.36 5.12 5.12 0 15.36 5.12 20.48 5.12H665.6c5.12 0 10.24 0 10.24-5.12 5.12 0 5.12-5.12 5.12-5.12v-10.24V460.8c0-5.12-5.12-5.12-5.12-5.12s-5.12-10.24-10.24-10.24-10.24-5.12-20.48-5.12c-15.36-5.12-30.72-10.24-40.96-10.24-10.24-5.12-20.48-10.24-25.6-15.36s-10.24-15.36-10.24-25.6-5.12-20.48-5.12-35.84c0-15.36 5.12-30.72 10.24-46.08 5.12-10.24 10.24-20.48 20.48-30.72 10.24-5.12 20.48-10.24 35.84-15.36 15.36-5.12 30.72-5.12 51.2-5.12s30.72 0 46.08 5.12c10.24 0 20.48 5.12 30.72 5.12v66.56c-5.12 0-5.12 0-15.36-5.12s-10.24 0-20.48-5.12c-5.12 0-15.36 0-20.48-5.12h-20.48c-15.36 0-20.48 0-30.72 5.12-5.12 5.12-10.24 10.24-10.24 15.36v10.24c0 5.12 10.24 10.24 15.36 10.24s5.12 5.12 15.36 5.12c5.12 0 10.24 5.12 20.48 5.12 20.48 5.12 30.72 10.24 40.96 15.36 10.24 5.12 20.48 10.24 25.6 20.48 5.12 5.12 10.24 15.36 10.24 25.6v35.84c0 15.36 0 30.72-5.12 40.96-5.12 10.24-10.24 20.48-20.48 30.72-10.24 10.24-20.48 15.36-35.84 20.48-15.36 5.12-30.72 5.12-56.32 5.12z" fill="#2c2c2c" p-id="67527"></path></svg>