<?xml version="1.0" standalone="no"?><!DOCTYPE svg PUBLIC "-//W3C//DTD SVG 1.1//EN" "http://www.w3.org/Graphics/SVG/1.1/DTD/svg11.dtd"><svg t="1695044897987" class="icon" viewBox="0 0 1024 1024" version="1.1" xmlns="http://www.w3.org/2000/svg" p-id="2312" xmlns:xlink="http://www.w3.org/1999/xlink" width="16" height="16"><path d="M143.36 801.47968C143.36 815.623253 140.621397 814.059947 153.022592 806.82112L295.499776 723.65312 305.467477 717.834667 317.009109 717.834667 868.776619 717.834667C892.404821 717.834667 911.36 698.802773 911.36 675.063893L911.36 297.629013C911.36 274.976853 892.310101 256 869.08608 256L185.63392 256C162.496 256 143.36 275.16928 143.36 298.624853L143.36 801.47968ZM185.63392 213.333333 869.08608 213.333333C915.997483 213.333333 954.026667 251.534933 954.026667 297.629013L954.026667 675.063893C954.026667 722.249813 916.086016 760.501333 868.776619 760.501333L317.009109 760.501333 174.531925 843.669333C133.752021 867.473493 100.693333 848.634453 100.693333 801.47968L100.693333 298.624853C100.693333 251.519573 139.017045 213.333333 185.63392 213.333333ZM719.36 554.666667C742.92416 554.666667 762.026667 535.563947 762.026667 512 762.026667 488.436053 742.92416 469.333333 719.36 469.333333 695.79584 469.333333 676.693333 488.436053 676.693333 512 676.693333 535.563947 695.79584 554.666667 719.36 554.666667ZM527.36 554.666667C550.92416 554.666667 570.026667 535.563947 570.026667 512 570.026667 488.436053 550.92416 469.333333 527.36 469.333333 503.79584 469.333333 484.693333 488.436053 484.693333 512 484.693333 535.563947 503.79584 554.666667 527.36 554.666667ZM335.36 554.666667C358.92416 554.666667 378.026667 535.563947 378.026667 512 378.026667 488.436053 358.92416 469.333333 335.36 469.333333 311.79584 469.333333 292.693333 488.436053 292.693333 512 292.693333 535.563947 311.79584 554.666667 335.36 554.666667Z" fill="#2c2c2c" p-id="2313"></path></svg>