<?xml version="1.0" standalone="no"?><!DOCTYPE svg PUBLIC "-//W3C//DTD SVG 1.1//EN" "http://www.w3.org/Graphics/SVG/1.1/DTD/svg11.dtd"><svg t="1694966346511" class="icon" viewBox="0 0 1024 1024" version="1.1" xmlns="http://www.w3.org/2000/svg" p-id="14065" xmlns:xlink="http://www.w3.org/1999/xlink" width="16" height="16"><path d="M923.369092 186.076976l-822.738184 0c-36.676317 0-66.514903 29.838585-66.514903 66.514903l0 372.483456c0 36.676317 29.838585 66.514903 66.514903 66.514903l822.738184 0c36.676317 0 66.514903-29.838585 66.514903-66.514903l0-372.483456C989.883995 215.915561 960.045409 186.076976 923.369092 186.076976zM938.718685 625.075335c0 8.463766-6.885827 15.349593-15.349593 15.349593l-72.65474 0 0-109.493763c0-14.129812-11.452843-25.582655-25.582655-25.582655s-25.582655 11.452843-25.582655 25.582655l0 109.493763-75.724659 0 0-72.65474c0-14.129812-11.452843-25.582655-25.582655-25.582655s-25.582655 11.452843-25.582655 25.582655l0 72.65474-75.724659 0 0-72.65474c0-14.129812-11.452843-25.582655-25.582655-25.582655s-25.582655 11.452843-25.582655 25.582655l0 72.65474-75.724659 0 0-72.65474c0-14.129812-11.453866-25.582655-25.582655-25.582655s-25.582655 11.452843-25.582655 25.582655l0 72.65474-75.724659 0 0-72.65474c0-14.129812-11.453866-25.582655-25.582655-25.582655s-25.582655 11.452843-25.582655 25.582655l0 72.65474-75.724659 0 0-109.493763c0-14.129812-11.453866-25.582655-25.582655-25.582655s-25.582655 11.452843-25.582655 25.582655l0 109.493763-64.46829 0c-8.463766 0-15.349593-6.885827-15.349593-15.349593l0-372.483456c0-8.463766 6.885827-15.349593 15.349593-15.349593l822.738184 0c8.463766 0 15.349593 6.885827 15.349593 15.349593L938.718685 625.075335z" fill="" p-id="14066"></path><path d="M833.318146 775.501346l-642.636293 0c-14.128789 0-25.582655 11.452843-25.582655 25.582655s11.453866 25.582655 25.582655 25.582655l642.636293 0c14.129812 0 25.582655-11.452843 25.582655-25.582655S847.447958 775.501346 833.318146 775.501346z" fill="" p-id="14067"></path></svg>