<?xml version="1.0" standalone="no"?><!DOCTYPE svg PUBLIC "-//W3C//DTD SVG 1.1//EN" "http://www.w3.org/Graphics/SVG/1.1/DTD/svg11.dtd"><svg t="1694968536708" class="icon" viewBox="0 0 1024 1024" version="1.1" xmlns="http://www.w3.org/2000/svg" p-id="36987" xmlns:xlink="http://www.w3.org/1999/xlink" width="16" height="16"><path d="M682.666667 216.917333V85.333333h-85.333334v96.64a341.248 341.248 0 0 0-85.333333-11.221333c-29.525333 0-58.026667 4.181333-85.333333 11.264V85.333333H341.333333v131.626667c-101.802667 59.136-170.624 169.088-170.624 295.082667S239.530667 747.989333 341.333333 807.125333V938.666667h85.333334v-96.597334A339.584 339.584 0 0 0 512 853.333333c29.482667 0 57.984-4.181333 85.333333-11.221333V938.666667h85.333334v-131.498667c101.845333-59.136 170.666667-169.130667 170.666666-295.125333s-68.821333-235.989333-170.666666-295.125334zM512 768c-141.141333 0-255.957333-114.816-255.957333-255.957333S370.858667 256.085333 512 256.085333s256 114.816 256 255.957334S653.184 768 512 768z" fill="" p-id="36988"></path><path d="M554.666667 341.333333h-85.333334v213.333334h213.333334v-85.333334h-128z" fill="" p-id="36989"></path></svg>